<?xml version="1.0" standalone="no"?>
<!DOCTYPE svg PUBLIC "-//W3C//DTD SVG 20010904//EN"
 "http://www.w3.org/TR/2001/REC-SVG-20010904/DTD/svg10.dtd">
<svg version="1.0" xmlns="http://www.w3.org/2000/svg"
 width="500.000000pt" height="500.000000pt" viewBox="0 0 500.000000 500.000000"
 preserveAspectRatio="xMidYMid meet">
<metadata>
Created by potrace 1.11, written by Peter Selinger 2001-2013
</metadata>
<g transform="translate(0.000000,500.000000) scale(0.100000,-0.100000)"
fill="#000000" stroke="none">
<path d="M3390 3744 c-350 -103 -568 -412 -645 -914 -22 -147 -30 -466 -16
-620 45 -469 209 -769 496 -906 73 -35 208 -74 257 -74 l28 0 0 105 0 105 -27
6 c-155 34 -284 121 -366 245 -20 30 -48 90 -63 134 -24 68 -28 96 -28 190 0
193 51 322 174 445 79 80 158 125 258 151 l52 13 0 103 c0 69 -4 103 -11 103
-6 0 -38 -7 -71 -15 -171 -45 -319 -149 -408 -286 l-40 -62 0 91 c0 50 7 144
15 209 55 415 209 674 456 764 l59 22 0 108 c0 127 9 121 -120 83z"/>
<path d="M3730 3667 l0 -106 43 -11 c188 -49 293 -159 343 -363 l17 -67 122 0
122 0 -4 28 c-14 93 -41 179 -80 262 -94 195 -286 331 -503 356 l-60 7 0 -106z"/>
<path d="M716 3668 c-7 -88 -66 -1228 -66 -1279 l0 -36 112 -6 112 -7 30 38
c100 125 221 203 374 242 l42 11 0 104 c0 58 -3 105 -7 105 -5 0 -39 -7 -76
-15 -102 -21 -207 -76 -283 -148 l-66 -61 6 64 c3 36 15 234 26 440 12 206 23
381 25 388 3 9 50 12 190 12 l185 0 0 110 0 110 -299 0 -299 0 -6 -72z"/>
<path d="M1540 3630 l0 -110 275 0 275 0 0 110 0 110 -275 0 -275 0 0 -110z"/>
<path d="M1540 2731 l0 -109 53 -18 c181 -59 302 -178 363 -359 25 -71 28 -95
28 -210 0 -114 -3 -140 -27 -210 -59 -176 -186 -302 -364 -360 l-53 -17 0
-109 0 -109 28 6 c162 37 269 83 367 158 121 93 220 241 265 396 31 105 39
335 16 447 -32 158 -95 274 -210 388 -112 112 -262 187 -418 209 l-48 7 0
-110z"/>
<path d="M3730 2734 l0 -109 75 -24 c94 -29 200 -102 254 -174 226 -298 144
-757 -164 -919 -39 -20 -91 -42 -117 -48 l-48 -12 0 -109 c0 -84 3 -109 13
-109 32 0 169 41 229 68 162 73 297 202 372 355 61 125 77 189 83 345 9 217
-31 381 -129 527 -112 168 -308 289 -505 311 l-63 7 0 -109z"/>
<path d="M574 1858 c27 -203 165 -412 341 -516 88 -51 227 -98 328 -109 l77
-9 0 106 0 107 -79 17 c-208 44 -364 193 -414 396 l-14 55 -123 3 -123 3 7
-53z"/>
</g>
</svg>
