<?xml version="1.0" encoding="utf-8"?>
<!-- Generator: Adobe Illustrator 21.0.0, SVG Export Plug-In . SVG Version: 6.00 Build 0)  -->
<svg version="1.1" id="Layer_1" xmlns="http://www.w3.org/2000/svg" xmlns:xlink="http://www.w3.org/1999/xlink" x="0px" y="0px"
	 width="500px" height="500px" viewBox="0 0 500 500" style="enable-background:new 0 0 500 500;" xml:space="preserve">
<style type="text/css">
	.st0{fill:#FF0000;}
</style>
<g>
	<g>
		<rect x="154.1" y="126.2" class="st0" width="54.9" height="22.3"/>
		<path class="st0" d="M132.1,237.2v-21.1c-17.9,2.1-32,9.4-41.9,21.7h-1.1l5-89.3h37.9v-22.3H71.9l-7.2,138.6l22.7,1.1
			C99.6,249.2,114.3,239.4,132.1,237.2z"/>
		<path class="st0" d="M154.1,216v22c26.8,5.5,44.9,27.2,44.9,58.7c0,32.6-19.8,52.8-44.9,58.2v21.7c37.7-5.5,69.3-33.4,69.3-82.1
			C223.4,249.9,193.9,220.5,154.1,216z"/>
		<path class="st0" d="M132.1,356.2c-32.1-3.1-47.9-25.4-50.9-47.1H56.8c4.1,37.5,30.1,65.6,75.3,68.5V356.2z"/>
	</g>
	<g>
		<path class="st0" d="M372.6,144c25.6,3.4,37.5,21.4,40.4,44h24.5c-4-35.9-24.6-62.1-64.9-65.5V144z"/>
		<path class="st0" d="M372.6,215.7v21.8c26.8,4.6,46.2,27.1,46.2,58.2c0,33.7-19.5,54.7-46.2,59.7V377
			c38.3-4.9,70.7-33.9,70.7-81.3C443.3,250,415.1,218.8,372.6,215.7z"/>
		<path class="st0" d="M350.6,355.9c-28.1-4.2-48.4-27.3-48.4-57.3c0-32.8,20-56,48.4-60.9v-20.9c-23.9,4.3-45.4,18.7-53.1,39.3
			v-0.4c0-72.7,24.2-104.1,53.1-110.9v-21.8c-42.1,5.9-78.7,42.7-78.7,132.7c0,83.6,34.5,117.2,78.7,121.5V355.9z"/>
	</g>
</g>
</svg>
